<svg width="500" height="828" viewBox="0 0 500 828" fill="none" xmlns="http://www.w3.org/2000/svg">
<rect width="500" height="800" rx="20" fill="white"/>
<rect x="38" y="57" width="424" height="565" fill="#2D0B8E" stroke="#8D725F" stroke-width="10"/>
<rect x="76" y="663" width="348" height="116" fill="#522A13"/>
<path d="M0 779H500V808C500 819.046 491.046 828 480 828H20C8.95432 828 0 819.046 0 808V779Z" fill="#AF7E68"/>
<path d="M76 759.5L0 779H76V759.5Z" fill="#926A58"/>
<path d="M424 760L500 779H424V760Z" fill="#926A58"/>
<rect x="76" y="673" width="348" height="88" fill="#B6B6B6"/>
<rect x="76" y="771" width="348" height="8" fill="#926A58"/>
<path d="M260.976 753.056C256.112 753.056 251.856 752.192 248.208 750.464C244.624 748.736 241.808 746.368 239.76 743.36C237.776 740.352 236.784 736.928 236.784 733.088C236.784 729.888 237.392 727.008 238.608 724.448C239.888 721.888 241.648 719.744 243.888 718.016C246.192 716.288 248.848 715.104 251.856 714.464L251.568 717.536C249.008 716.96 246.832 715.904 245.04 714.368C243.248 712.768 241.872 710.848 240.912 708.608C239.952 706.368 239.472 704.032 239.472 701.6C239.472 698.016 240.368 694.848 242.16 692.096C244.016 689.28 246.576 687.072 249.84 685.472C253.104 683.872 256.816 683.072 260.976 683.072C265.2 683.072 268.912 683.872 272.112 685.472C275.376 687.072 277.904 689.28 279.696 692.096C281.552 694.848 282.48 698.016 282.48 701.6C282.48 704.032 282 706.368 281.04 708.608C280.144 710.848 278.8 712.768 277.008 714.368C275.216 715.904 273.04 716.96 270.48 717.536L270.096 714.464C273.168 715.104 275.824 716.288 278.064 718.016C280.368 719.744 282.128 721.888 283.344 724.448C284.56 727.008 285.168 729.888 285.168 733.088C285.168 736.928 284.176 740.352 282.192 743.36C280.208 746.368 277.392 748.736 273.744 750.464C270.16 752.192 265.904 753.056 260.976 753.056ZM260.976 740.192C262.896 740.192 264.592 739.808 266.064 739.04C267.536 738.208 268.688 737.088 269.52 735.68C270.416 734.272 270.864 732.704 270.864 730.976C270.864 729.184 270.416 727.616 269.52 726.272C268.688 724.864 267.536 723.776 266.064 723.008C264.592 722.176 262.896 721.76 260.976 721.76C259.056 721.76 257.36 722.176 255.888 723.008C254.416 723.776 253.264 724.864 252.432 726.272C251.6 727.616 251.184 729.184 251.184 730.976C251.184 732.704 251.6 734.272 252.432 735.68C253.264 737.088 254.416 738.208 255.888 739.04C257.36 739.808 259.056 740.192 260.976 740.192ZM260.976 710.816C263.216 710.816 265.04 710.112 266.448 708.704C267.92 707.232 268.656 705.408 268.656 703.232C268.656 700.992 267.92 699.168 266.448 697.76C265.04 696.288 263.216 695.552 260.976 695.552C258.8 695.552 256.976 696.256 255.504 697.664C254.032 699.072 253.296 700.896 253.296 703.136C253.296 705.312 254.032 707.136 255.504 708.608C256.976 710.08 258.8 710.816 260.976 710.816ZM301.826 753.056C299.33 753.056 297.25 752.192 295.586 750.464C293.922 748.736 293.09 746.656 293.09 744.224C293.09 741.664 293.922 739.552 295.586 737.888C297.25 736.16 299.33 735.296 301.826 735.296C304.386 735.296 306.466 736.16 308.066 737.888C309.73 739.552 310.562 741.664 310.562 744.224C310.562 746.656 309.73 748.736 308.066 750.464C306.466 752.192 304.386 753.056 301.826 753.056ZM301.826 724.64C299.33 724.64 297.25 723.776 295.586 722.048C293.922 720.32 293.09 718.24 293.09 715.808C293.09 713.248 293.922 711.136 295.586 709.472C297.25 707.744 299.33 706.88 301.826 706.88C304.386 706.88 306.466 707.744 308.066 709.472C309.73 711.136 310.562 713.248 310.562 715.808C310.562 718.24 309.73 720.32 308.066 722.048C306.466 723.776 304.386 724.64 301.826 724.64ZM340.038 753.056C335.366 753.056 331.078 752.256 327.174 750.656C323.27 748.992 319.974 746.624 317.286 743.552L326.982 733.856C328.198 735.648 329.958 737.12 332.262 738.272C334.63 739.36 337.126 739.904 339.75 739.904C342.118 739.904 344.166 739.488 345.894 738.656C347.622 737.824 348.966 736.64 349.926 735.104C350.95 733.568 351.462 731.744 351.462 729.632C351.462 727.52 350.95 725.728 349.926 724.256C348.966 722.72 347.526 721.536 345.606 720.704C343.75 719.872 341.51 719.456 338.886 719.456C337.67 719.456 336.39 719.552 335.046 719.744C333.766 719.872 332.678 720.096 331.782 720.416L338.406 712.064C340.198 711.552 341.894 711.136 343.494 710.816C345.158 710.432 346.694 710.24 348.102 710.24C351.558 710.24 354.662 711.072 357.414 712.736C360.166 714.336 362.342 716.64 363.942 719.648C365.606 722.592 366.438 726.112 366.438 730.208C366.438 734.688 365.318 738.656 363.078 742.112C360.902 745.568 357.83 748.256 353.862 750.176C349.958 752.096 345.35 753.056 340.038 753.056ZM331.782 720.416V712.064L348.294 692.672L365.19 692.576L348.006 712.16L331.782 720.416ZM321.51 696.992V684.224H365.19V692.576L353.382 696.992H321.51ZM378.819 752L401.859 692.672H416.547L394.371 752H378.819ZM369.795 696.992V684.224H416.547V692.672L411.555 696.992H369.795Z" fill="#A80101"/>
<path d="M50.252 575.06L53.036 569.528H55.088L52.244 575.06H50.252ZM50.252 576.116V575.06L50.876 574.52H57.044V576.116H50.252ZM54.248 578V572.756H56.096V578H54.248ZM60.6845 578.132C60.0765 578.132 59.5445 578.024 59.0885 577.808C58.6405 577.592 58.2885 577.296 58.0325 576.92C57.7845 576.544 57.6605 576.116 57.6605 575.636C57.6605 575.236 57.7365 574.876 57.8885 574.556C58.0485 574.236 58.2685 573.968 58.5485 573.752C58.8365 573.536 59.1685 573.388 59.5445 573.308L59.5085 573.692C59.1885 573.62 58.9165 573.488 58.6925 573.296C58.4685 573.096 58.2965 572.856 58.1765 572.576C58.0565 572.296 57.9965 572.004 57.9965 571.7C57.9965 571.252 58.1085 570.856 58.3325 570.512C58.5645 570.16 58.8845 569.884 59.2925 569.684C59.7005 569.484 60.1645 569.384 60.6845 569.384C61.2125 569.384 61.6765 569.484 62.0765 569.684C62.4845 569.884 62.8005 570.16 63.0245 570.512C63.2565 570.856 63.3725 571.252 63.3725 571.7C63.3725 572.004 63.3125 572.296 63.1925 572.576C63.0805 572.856 62.9125 573.096 62.6885 573.296C62.4645 573.488 62.1925 573.62 61.8725 573.692L61.8245 573.308C62.2085 573.388 62.5405 573.536 62.8205 573.752C63.1085 573.968 63.3285 574.236 63.4805 574.556C63.6325 574.876 63.7085 575.236 63.7085 575.636C63.7085 576.116 63.5845 576.544 63.3365 576.92C63.0885 577.296 62.7365 577.592 62.2805 577.808C61.8325 578.024 61.3005 578.132 60.6845 578.132ZM60.6845 576.524C60.9245 576.524 61.1365 576.476 61.3205 576.38C61.5045 576.276 61.6485 576.136 61.7525 575.96C61.8645 575.784 61.9205 575.588 61.9205 575.372C61.9205 575.148 61.8645 574.952 61.7525 574.784C61.6485 574.608 61.5045 574.472 61.3205 574.376C61.1365 574.272 60.9245 574.22 60.6845 574.22C60.4445 574.22 60.2325 574.272 60.0485 574.376C59.8645 574.472 59.7205 574.608 59.6165 574.784C59.5125 574.952 59.4605 575.148 59.4605 575.372C59.4605 575.588 59.5125 575.784 59.6165 575.96C59.7205 576.136 59.8645 576.276 60.0485 576.38C60.2325 576.476 60.4445 576.524 60.6845 576.524ZM60.6845 572.852C60.9645 572.852 61.1925 572.764 61.3685 572.588C61.5525 572.404 61.6445 572.176 61.6445 571.904C61.6445 571.624 61.5525 571.396 61.3685 571.22C61.1925 571.036 60.9645 570.944 60.6845 570.944C60.4125 570.944 60.1845 571.032 60.0005 571.208C59.8165 571.384 59.7245 571.612 59.7245 571.892C59.7245 572.164 59.8165 572.392 60.0005 572.576C60.1845 572.76 60.4125 572.852 60.6845 572.852ZM66.4268 573.356C66.0348 573.356 65.6868 573.272 65.3828 573.104C65.0788 572.928 64.8388 572.692 64.6628 572.396C64.4948 572.1 64.4108 571.768 64.4108 571.4C64.4108 571.016 64.4948 570.676 64.6628 570.38C64.8388 570.084 65.0788 569.848 65.3828 569.672C65.6868 569.496 66.0348 569.408 66.4268 569.408C66.8188 569.408 67.1628 569.496 67.4588 569.672C67.7628 569.848 68.0028 570.084 68.1788 570.38C68.3548 570.676 68.4428 571.016 68.4428 571.4C68.4428 571.768 68.3548 572.1 68.1788 572.396C68.0108 572.692 67.7748 572.928 67.4708 573.104C67.1668 573.272 66.8188 573.356 66.4268 573.356ZM66.4268 572.06C66.6188 572.06 66.7748 571.996 66.8948 571.868C67.0228 571.74 67.0868 571.58 67.0868 571.388C67.0868 571.196 67.0228 571.036 66.8948 570.908C66.7748 570.772 66.6188 570.704 66.4268 570.704C66.2348 570.704 66.0748 570.772 65.9468 570.908C65.8268 571.036 65.7668 571.196 65.7668 571.388C65.7668 571.58 65.8268 571.74 65.9468 571.868C66.0748 571.996 66.2348 572.06 66.4268 572.06ZM69.6246 578V569.528H71.5086V578H69.6246ZM71.0646 574.676V573.056H75.3006V574.676H71.0646ZM71.0646 571.148V569.528H75.4926V571.148H71.0646ZM53.36 593.132C52.664 593.132 52.064 593.02 51.56 592.796C51.064 592.564 50.608 592.216 50.192 591.752L51.416 590.54C51.688 590.852 51.988 591.096 52.316 591.272C52.652 591.44 53.04 591.524 53.48 591.524C53.88 591.524 54.188 591.452 54.404 591.308C54.628 591.164 54.74 590.964 54.74 590.708C54.74 590.476 54.668 590.288 54.524 590.144C54.38 590 54.188 589.876 53.948 589.772C53.716 589.668 53.456 589.568 53.168 589.472C52.888 589.376 52.608 589.268 52.328 589.148C52.048 589.02 51.788 588.864 51.548 588.68C51.316 588.488 51.128 588.252 50.984 587.972C50.84 587.684 50.768 587.324 50.768 586.892C50.768 586.372 50.892 585.924 51.14 585.548C51.396 585.172 51.748 584.888 52.196 584.696C52.644 584.496 53.16 584.396 53.744 584.396C54.336 584.396 54.876 584.5 55.364 584.708C55.86 584.916 56.268 585.2 56.588 585.56L55.364 586.772C55.108 586.508 54.848 586.312 54.584 586.184C54.328 586.056 54.036 585.992 53.708 585.992C53.38 585.992 53.12 586.056 52.928 586.184C52.736 586.304 52.64 586.48 52.64 586.712C52.64 586.928 52.712 587.104 52.856 587.24C53 587.368 53.188 587.48 53.42 587.576C53.66 587.672 53.92 587.768 54.2 587.864C54.488 587.96 54.772 588.072 55.052 588.2C55.332 588.328 55.588 588.492 55.82 588.692C56.06 588.884 56.252 589.132 56.396 589.436C56.54 589.732 56.612 590.1 56.612 590.54C56.612 591.348 56.324 591.984 55.748 592.448C55.172 592.904 54.376 593.132 53.36 593.132ZM60.4289 593.132C59.8289 593.132 59.2849 593 58.7969 592.736C58.3089 592.472 57.9249 592.108 57.6449 591.644C57.3649 591.18 57.2249 590.66 57.2249 590.084C57.2249 589.5 57.3649 588.98 57.6449 588.524C57.9329 588.06 58.3209 587.696 58.8089 587.432C59.2969 587.168 59.8449 587.036 60.4529 587.036C60.9089 587.036 61.3249 587.116 61.7009 587.276C62.0849 587.428 62.4249 587.66 62.7209 587.972L61.5449 589.148C61.4089 588.996 61.2489 588.884 61.0649 588.812C60.8889 588.74 60.6849 588.704 60.4529 588.704C60.1889 588.704 59.9529 588.764 59.7449 588.884C59.5449 588.996 59.3849 589.156 59.2649 589.364C59.1529 589.564 59.0969 589.8 59.0969 590.072C59.0969 590.344 59.1529 590.584 59.2649 590.792C59.3849 591 59.5489 591.164 59.7569 591.284C59.9649 591.404 60.1969 591.464 60.4529 591.464C60.6929 591.464 60.9049 591.424 61.0889 591.344C61.2809 591.256 61.4449 591.136 61.5809 590.984L62.7449 592.16C62.4409 592.48 62.0969 592.724 61.7129 592.892C61.3289 593.052 60.9009 593.132 60.4289 593.132ZM65.8574 593.12C65.3214 593.12 64.8414 592.988 64.4174 592.724C64.0014 592.46 63.6694 592.1 63.4214 591.644C63.1814 591.188 63.0614 590.668 63.0614 590.084C63.0614 589.5 63.1814 588.98 63.4214 588.524C63.6694 588.068 64.0014 587.708 64.4174 587.444C64.8414 587.18 65.3214 587.048 65.8574 587.048C66.2494 587.048 66.6014 587.124 66.9134 587.276C67.2334 587.428 67.4934 587.64 67.6934 587.912C67.8934 588.176 68.0054 588.48 68.0294 588.824V591.344C68.0054 591.688 67.8934 591.996 67.6934 592.268C67.5014 592.532 67.2454 592.74 66.9254 592.892C66.6054 593.044 66.2494 593.12 65.8574 593.12ZM66.2294 591.464C66.6214 591.464 66.9374 591.336 67.1774 591.08C67.4174 590.816 67.5374 590.484 67.5374 590.084C67.5374 589.812 67.4814 589.572 67.3694 589.364C67.2654 589.156 67.1134 588.996 66.9134 588.884C66.7214 588.764 66.4974 588.704 66.2414 588.704C65.9854 588.704 65.7574 588.764 65.5574 588.884C65.3654 588.996 65.2094 589.156 65.0894 589.364C64.9774 589.572 64.9214 589.812 64.9214 590.084C64.9214 590.348 64.9774 590.584 65.0894 590.792C65.2014 591 65.3574 591.164 65.5574 591.284C65.7574 591.404 65.9814 591.464 66.2294 591.464ZM67.4654 593V591.428L67.7414 590.012L67.4654 588.596V587.168H69.2654V593H67.4654ZM71.3862 593V584.756H73.2222V593H71.3862ZM70.0662 588.728V587.168H78.2382V588.728H70.0662ZM75.0822 593V584.756H76.9182V593H75.0822ZM81.8053 593.132C81.1733 593.132 80.6093 593.004 80.1133 592.748C79.6253 592.484 79.2413 592.12 78.9613 591.656C78.6813 591.192 78.5413 590.668 78.5413 590.084C78.5413 589.5 78.6773 588.98 78.9493 588.524C79.2293 588.06 79.6053 587.696 80.0773 587.432C80.5493 587.168 81.0813 587.036 81.6733 587.036C82.2493 587.036 82.7573 587.16 83.1973 587.408C83.6373 587.656 83.9813 588 84.2293 588.44C84.4853 588.88 84.6133 589.384 84.6133 589.952C84.6133 590.056 84.6053 590.168 84.5893 590.288C84.5813 590.4 84.5613 590.532 84.5293 590.684L79.5013 590.696V589.436L83.7493 589.424L82.9573 589.952C82.9493 589.616 82.8973 589.34 82.8013 589.124C82.7053 588.9 82.5613 588.732 82.3693 588.62C82.1853 588.5 81.9573 588.44 81.6853 588.44C81.3973 588.44 81.1453 588.508 80.9293 588.644C80.7213 588.772 80.5573 588.956 80.4373 589.196C80.3253 589.436 80.2693 589.728 80.2693 590.072C80.2693 590.416 80.3293 590.712 80.4493 590.96C80.5773 591.2 80.7533 591.388 80.9773 591.524C81.2093 591.652 81.4813 591.716 81.7933 591.716C82.0813 591.716 82.3413 591.668 82.5733 591.572C82.8053 591.468 83.0093 591.316 83.1853 591.116L84.1933 592.124C83.9053 592.46 83.5573 592.712 83.1493 592.88C82.7413 593.048 82.2933 593.132 81.8053 593.132ZM85.4996 593V587.168H87.3356V593H85.4996ZM87.3356 589.796L86.5676 589.196C86.7196 588.516 86.9756 587.988 87.3356 587.612C87.6956 587.236 88.1956 587.048 88.8356 587.048C89.1156 587.048 89.3596 587.092 89.5676 587.18C89.7836 587.26 89.9716 587.388 90.1316 587.564L89.0396 588.944C88.9596 588.856 88.8596 588.788 88.7396 588.74C88.6196 588.692 88.4836 588.668 88.3316 588.668C88.0276 588.668 87.7836 588.764 87.5996 588.956C87.4236 589.14 87.3356 589.42 87.3356 589.796ZM93.3366 593.132C92.7046 593.132 92.1406 593.004 91.6446 592.748C91.1566 592.484 90.7726 592.12 90.4926 591.656C90.2126 591.192 90.0726 590.668 90.0726 590.084C90.0726 589.5 90.2086 588.98 90.4806 588.524C90.7606 588.06 91.1366 587.696 91.6086 587.432C92.0806 587.168 92.6126 587.036 93.2046 587.036C93.7806 587.036 94.2886 587.16 94.7286 587.408C95.1686 587.656 95.5126 588 95.7606 588.44C96.0166 588.88 96.1446 589.384 96.1446 589.952C96.1446 590.056 96.1366 590.168 96.1206 590.288C96.1126 590.4 96.0926 590.532 96.0606 590.684L91.0326 590.696V589.436L95.2806 589.424L94.4886 589.952C94.4806 589.616 94.4286 589.34 94.3326 589.124C94.2366 588.9 94.0926 588.732 93.9006 588.62C93.7166 588.5 93.4886 588.44 93.2166 588.44C92.9286 588.44 92.6766 588.508 92.4606 588.644C92.2526 588.772 92.0886 588.956 91.9686 589.196C91.8566 589.436 91.8006 589.728 91.8006 590.072C91.8006 590.416 91.8606 590.712 91.9806 590.96C92.1086 591.2 92.2846 591.388 92.5086 591.524C92.7406 591.652 93.0126 591.716 93.3246 591.716C93.6126 591.716 93.8726 591.668 94.1046 591.572C94.3366 591.468 94.5406 591.316 94.7166 591.116L95.7246 592.124C95.4366 592.46 95.0886 592.712 94.6806 592.88C94.2726 593.048 93.8246 593.132 93.3366 593.132ZM99.5148 593.12C98.9628 593.12 98.4708 592.988 98.0388 592.724C97.6148 592.46 97.2788 592.1 97.0308 591.644C96.7908 591.188 96.6708 590.668 96.6708 590.084C96.6708 589.5 96.7908 588.98 97.0308 588.524C97.2788 588.068 97.6148 587.708 98.0388 587.444C98.4708 587.18 98.9628 587.048 99.5148 587.048C99.9148 587.048 100.275 587.124 100.595 587.276C100.923 587.428 101.191 587.64 101.399 587.912C101.615 588.176 101.735 588.48 101.759 588.824V591.284C101.735 591.628 101.619 591.94 101.411 592.22C101.203 592.492 100.935 592.712 100.607 592.88C100.279 593.04 99.9148 593.12 99.5148 593.12ZM99.8388 591.464C100.103 591.464 100.331 591.408 100.523 591.296C100.715 591.176 100.867 591.012 100.979 590.804C101.091 590.596 101.147 590.356 101.147 590.084C101.147 589.812 101.091 589.576 100.979 589.376C100.875 589.168 100.723 589.004 100.523 588.884C100.331 588.764 100.107 588.704 99.8508 588.704C99.5948 588.704 99.3668 588.764 99.1668 588.884C98.9748 589.004 98.8188 589.168 98.6988 589.376C98.5868 589.584 98.5308 589.82 98.5308 590.084C98.5308 590.348 98.5868 590.584 98.6988 590.792C98.8108 591 98.9668 591.164 99.1668 591.284C99.3668 591.404 99.5908 591.464 99.8388 591.464ZM102.875 593H101.075V591.428L101.351 590.012L101.039 588.596V584.288H102.875V593ZM109.165 593.132C108.469 593.132 107.869 593.02 107.365 592.796C106.869 592.564 106.413 592.216 105.997 591.752L107.221 590.54C107.493 590.852 107.793 591.096 108.121 591.272C108.457 591.44 108.845 591.524 109.285 591.524C109.685 591.524 109.993 591.452 110.209 591.308C110.433 591.164 110.545 590.964 110.545 590.708C110.545 590.476 110.473 590.288 110.329 590.144C110.185 590 109.993 589.876 109.753 589.772C109.521 589.668 109.261 589.568 108.973 589.472C108.693 589.376 108.413 589.268 108.133 589.148C107.853 589.02 107.593 588.864 107.353 588.68C107.121 588.488 106.933 588.252 106.789 587.972C106.645 587.684 106.573 587.324 106.573 586.892C106.573 586.372 106.697 585.924 106.945 585.548C107.201 585.172 107.553 584.888 108.001 584.696C108.449 584.496 108.965 584.396 109.549 584.396C110.141 584.396 110.681 584.5 111.169 584.708C111.665 584.916 112.073 585.2 112.393 585.56L111.169 586.772C110.913 586.508 110.653 586.312 110.389 586.184C110.133 586.056 109.841 585.992 109.513 585.992C109.185 585.992 108.925 586.056 108.733 586.184C108.541 586.304 108.445 586.48 108.445 586.712C108.445 586.928 108.517 587.104 108.661 587.24C108.805 587.368 108.993 587.48 109.225 587.576C109.465 587.672 109.725 587.768 110.005 587.864C110.293 587.96 110.577 588.072 110.857 588.2C111.137 588.328 111.393 588.492 111.625 588.692C111.865 588.884 112.057 589.132 112.201 589.436C112.345 589.732 112.417 590.1 112.417 590.54C112.417 591.348 112.129 591.984 111.553 592.448C110.977 592.904 110.181 593.132 109.165 593.132ZM117.301 593V589.676C117.301 589.372 117.205 589.128 117.013 588.944C116.829 588.752 116.593 588.656 116.305 588.656C116.105 588.656 115.929 588.7 115.777 588.788C115.625 588.868 115.505 588.988 115.417 589.148C115.329 589.3 115.285 589.476 115.285 589.676L114.577 589.328C114.577 588.872 114.673 588.472 114.865 588.128C115.057 587.784 115.325 587.52 115.669 587.336C116.013 587.144 116.409 587.048 116.857 587.048C117.313 587.048 117.713 587.144 118.057 587.336C118.401 587.52 118.665 587.78 118.849 588.116C119.041 588.444 119.137 588.828 119.137 589.268V593H117.301ZM113.449 593V584.288H115.285V593H113.449ZM123.124 593.132C122.524 593.132 121.98 593 121.492 592.736C121.012 592.464 120.632 592.096 120.352 591.632C120.072 591.168 119.932 590.648 119.932 590.072C119.932 589.496 120.072 588.98 120.352 588.524C120.632 588.068 121.012 587.708 121.492 587.444C121.972 587.172 122.516 587.036 123.124 587.036C123.732 587.036 124.276 587.168 124.756 587.432C125.236 587.696 125.616 588.06 125.896 588.524C126.176 588.98 126.316 589.496 126.316 590.072C126.316 590.648 126.176 591.168 125.896 591.632C125.616 592.096 125.236 592.464 124.756 592.736C124.276 593 123.732 593.132 123.124 593.132ZM123.124 591.464C123.388 591.464 123.62 591.408 123.82 591.296C124.02 591.176 124.172 591.012 124.276 590.804C124.388 590.588 124.444 590.344 124.444 590.072C124.444 589.8 124.388 589.564 124.276 589.364C124.164 589.156 124.008 588.996 123.808 588.884C123.616 588.764 123.388 588.704 123.124 588.704C122.868 588.704 122.64 588.764 122.44 588.884C122.24 588.996 122.084 589.156 121.972 589.364C121.86 589.572 121.804 589.812 121.804 590.084C121.804 590.348 121.86 590.588 121.972 590.804C122.084 591.012 122.24 591.176 122.44 591.296C122.64 591.408 122.868 591.464 123.124 591.464ZM128.541 593L126.525 587.168H128.325L129.573 591.404L129.045 591.416L130.425 587.168H131.913L133.305 591.416L132.765 591.404L134.025 587.168H135.825L133.809 593H132.309L130.953 588.968H131.409L130.029 593H128.541ZM139.298 593.132C138.666 593.132 138.102 593.004 137.606 592.748C137.118 592.484 136.734 592.12 136.454 591.656C136.174 591.192 136.034 590.668 136.034 590.084C136.034 589.5 136.17 588.98 136.442 588.524C136.722 588.06 137.098 587.696 137.57 587.432C138.042 587.168 138.574 587.036 139.166 587.036C139.742 587.036 140.25 587.16 140.69 587.408C141.13 587.656 141.474 588 141.722 588.44C141.978 588.88 142.106 589.384 142.106 589.952C142.106 590.056 142.098 590.168 142.082 590.288C142.074 590.4 142.054 590.532 142.022 590.684L136.994 590.696V589.436L141.242 589.424L140.45 589.952C140.442 589.616 140.39 589.34 140.294 589.124C140.198 588.9 140.054 588.732 139.862 588.62C139.678 588.5 139.45 588.44 139.178 588.44C138.89 588.44 138.638 588.508 138.422 588.644C138.214 588.772 138.05 588.956 137.93 589.196C137.818 589.436 137.762 589.728 137.762 590.072C137.762 590.416 137.822 590.712 137.942 590.96C138.07 591.2 138.246 591.388 138.47 591.524C138.702 591.652 138.974 591.716 139.286 591.716C139.574 591.716 139.834 591.668 140.066 591.572C140.298 591.468 140.502 591.316 140.678 591.116L141.686 592.124C141.398 592.46 141.05 592.712 140.642 592.88C140.234 593.048 139.786 593.132 139.298 593.132ZM142.992 593V587.168H144.828V593H142.992ZM144.828 589.796L144.06 589.196C144.212 588.516 144.468 587.988 144.828 587.612C145.188 587.236 145.688 587.048 146.328 587.048C146.608 587.048 146.852 587.092 147.06 587.18C147.276 587.26 147.464 587.388 147.624 587.564L146.532 588.944C146.452 588.856 146.352 588.788 146.232 588.74C146.112 588.692 145.976 588.668 145.824 588.668C145.52 588.668 145.276 588.764 145.092 588.956C144.916 589.14 144.828 589.42 144.828 589.796ZM150.108 593.144C149.764 593.144 149.424 593.1 149.088 593.012C148.76 592.924 148.452 592.8 148.164 592.64C147.884 592.472 147.644 592.28 147.444 592.064L148.488 591.008C148.68 591.216 148.908 591.38 149.172 591.5C149.436 591.612 149.724 591.668 150.036 591.668C150.252 591.668 150.416 591.636 150.528 591.572C150.648 591.508 150.708 591.42 150.708 591.308C150.708 591.164 150.636 591.056 150.492 590.984C150.356 590.904 150.18 590.836 149.964 590.78C149.748 590.716 149.52 590.648 149.28 590.576C149.04 590.504 148.812 590.404 148.596 590.276C148.38 590.148 148.204 589.972 148.068 589.748C147.932 589.516 147.864 589.224 147.864 588.872C147.864 588.496 147.96 588.172 148.152 587.9C148.344 587.62 148.616 587.4 148.968 587.24C149.32 587.08 149.732 587 150.204 587C150.7 587 151.156 587.088 151.572 587.264C151.996 587.432 152.34 587.684 152.604 588.02L151.56 589.076C151.376 588.86 151.168 588.708 150.936 588.62C150.712 588.532 150.492 588.488 150.276 588.488C150.068 588.488 149.912 588.52 149.808 588.584C149.704 588.64 149.652 588.724 149.652 588.836C149.652 588.956 149.72 589.052 149.856 589.124C149.992 589.196 150.168 589.26 150.384 589.316C150.6 589.372 150.828 589.44 151.068 589.52C151.308 589.6 151.536 589.708 151.752 589.844C151.968 589.98 152.144 590.164 152.28 590.396C152.416 590.62 152.484 590.916 152.484 591.284C152.484 591.852 152.268 592.304 151.836 592.64C151.412 592.976 150.836 593.144 150.108 593.144ZM52.088 608V606.344H54.188C54.7 606.344 55.148 606.244 55.532 606.044C55.916 605.836 56.212 605.536 56.42 605.144C56.628 604.752 56.732 604.288 56.732 603.752C56.732 603.216 56.624 602.756 56.408 602.372C56.2 601.988 55.904 601.692 55.52 601.484C55.144 601.276 54.7 601.172 54.188 601.172H52.028V599.528H54.212C54.852 599.528 55.44 599.632 55.976 599.84C56.52 600.04 56.992 600.332 57.392 600.716C57.8 601.092 58.112 601.54 58.328 602.06C58.552 602.572 58.664 603.14 58.664 603.764C58.664 604.38 58.552 604.948 58.328 605.468C58.112 605.988 57.804 606.436 57.404 606.812C57.004 607.188 56.532 607.48 55.988 607.688C55.452 607.896 54.868 608 54.236 608H52.088ZM50.816 608V599.528H52.7V608H50.816ZM62.5749 608.132C61.9429 608.132 61.3789 608.004 60.8829 607.748C60.3949 607.484 60.0109 607.12 59.7309 606.656C59.4509 606.192 59.3109 605.668 59.3109 605.084C59.3109 604.5 59.4469 603.98 59.7189 603.524C59.9989 603.06 60.3749 602.696 60.8469 602.432C61.3189 602.168 61.8509 602.036 62.4429 602.036C63.0189 602.036 63.5269 602.16 63.9669 602.408C64.4069 602.656 64.7509 603 64.9989 603.44C65.2549 603.88 65.3829 604.384 65.3829 604.952C65.3829 605.056 65.3749 605.168 65.3589 605.288C65.3509 605.4 65.3309 605.532 65.2989 605.684L60.2709 605.696V604.436L64.5189 604.424L63.7269 604.952C63.7189 604.616 63.6669 604.34 63.5709 604.124C63.4749 603.9 63.3309 603.732 63.1389 603.62C62.9549 603.5 62.7269 603.44 62.4549 603.44C62.1669 603.44 61.9149 603.508 61.6989 603.644C61.4909 603.772 61.3269 603.956 61.2069 604.196C61.0949 604.436 61.0389 604.728 61.0389 605.072C61.0389 605.416 61.0989 605.712 61.2189 605.96C61.3469 606.2 61.5229 606.388 61.7469 606.524C61.9789 606.652 62.2509 606.716 62.5629 606.716C62.8509 606.716 63.1109 606.668 63.3429 606.572C63.5749 606.468 63.7789 606.316 63.9549 606.116L64.9629 607.124C64.6749 607.46 64.3269 607.712 63.9189 607.88C63.5109 608.048 63.0629 608.132 62.5749 608.132ZM66.9682 608V599.756H68.8042V608H66.9682ZM65.6482 603.728V602.168H70.1242V603.728H65.6482ZM70.9332 608V602.168H72.7692V608H70.9332ZM72.7692 604.796L72.0012 604.196C72.1532 603.516 72.4092 602.988 72.7692 602.612C73.1292 602.236 73.6292 602.048 74.2692 602.048C74.5492 602.048 74.7932 602.092 75.0012 602.18C75.2172 602.26 75.4052 602.388 75.5652 602.564L74.4732 603.944C74.3932 603.856 74.2932 603.788 74.1732 603.74C74.0532 603.692 73.9172 603.668 73.7652 603.668C73.4612 603.668 73.2172 603.764 73.0332 603.956C72.8572 604.14 72.7692 604.42 72.7692 604.796ZM78.6982 608.132C78.0982 608.132 77.5542 608 77.0662 607.736C76.5862 607.464 76.2062 607.096 75.9262 606.632C75.6462 606.168 75.5062 605.648 75.5062 605.072C75.5062 604.496 75.6462 603.98 75.9262 603.524C76.2062 603.068 76.5862 602.708 77.0662 602.444C77.5462 602.172 78.0902 602.036 78.6982 602.036C79.3062 602.036 79.8502 602.168 80.3302 602.432C80.8102 602.696 81.1902 603.06 81.4702 603.524C81.7502 603.98 81.8902 604.496 81.8902 605.072C81.8902 605.648 81.7502 606.168 81.4702 606.632C81.1902 607.096 80.8102 607.464 80.3302 607.736C79.8502 608 79.3062 608.132 78.6982 608.132ZM78.6982 606.464C78.9622 606.464 79.1942 606.408 79.3942 606.296C79.5942 606.176 79.7462 606.012 79.8502 605.804C79.9622 605.588 80.0182 605.344 80.0182 605.072C80.0182 604.8 79.9622 604.564 79.8502 604.364C79.7382 604.156 79.5822 603.996 79.3822 603.884C79.1902 603.764 78.9622 603.704 78.6982 603.704C78.4422 603.704 78.2142 603.764 78.0142 603.884C77.8142 603.996 77.6582 604.156 77.5462 604.364C77.4342 604.572 77.3782 604.812 77.3782 605.084C77.3782 605.348 77.4342 605.588 77.5462 605.804C77.6582 606.012 77.8142 606.176 78.0142 606.296C78.2142 606.408 78.4422 606.464 78.6982 606.464ZM82.8043 608V602.168H84.6403V608H82.8043ZM83.7283 601.364C83.4403 601.364 83.2003 601.268 83.0083 601.076C82.8243 600.876 82.7323 600.636 82.7323 600.356C82.7323 600.068 82.8243 599.828 83.0083 599.636C83.2003 599.444 83.4403 599.348 83.7283 599.348C84.0163 599.348 84.2523 599.444 84.4363 599.636C84.6203 599.828 84.7123 600.068 84.7123 600.356C84.7123 600.636 84.6203 600.876 84.4363 601.076C84.2523 601.268 84.0163 601.364 83.7283 601.364ZM86.7612 608V599.756H88.5972V608H86.7612ZM85.4412 603.728V602.168H89.9172V603.728H85.4412ZM90.316 609.44L91.192 607.808L91.732 607.652C91.676 607.772 91.608 607.872 91.528 607.952C91.448 608.024 91.356 608.06 91.252 608.06C91.02 608.06 90.808 607.964 90.616 607.772C90.424 607.58 90.328 607.34 90.328 607.052C90.328 606.74 90.432 606.472 90.64 606.248C90.856 606.024 91.12 605.912 91.432 605.912C91.728 605.912 91.984 606.024 92.2 606.248C92.424 606.464 92.536 606.732 92.536 607.052C92.536 607.18 92.512 607.328 92.464 607.496C92.416 607.664 92.32 607.884 92.176 608.156L91.204 609.932L90.316 609.44ZM96.1676 608V599.528H97.5116L100.848 604.724H100.164L103.488 599.528H104.844V608H102.96V602.708L103.296 602.792L101.124 606.176H99.8756L97.7156 602.792L98.0396 602.708V608H96.1676ZM106.468 608V599.528H108.352V608H106.468Z" fill="#E27474"/>
</svg>
